<svg xmlns="http://www.w3.org/2000/svg" fill-rule="evenodd" viewBox="0 0 100 100">
    <path d="M45.659 93.375a1.5 1.5 0 0 1-1.5-1.5v-7.517l-6.089-.199c-11.036.001-17.018-9.124-17.018-17.709l.016-4.007c-2.305-.862-5.46-2.926-6.196-3.726-3.685-4 3.311-12.266 5.748-14.912a33.123 33.123 0 0 1-.197-3.621c0-18.091 14.916-32.81 33.25-32.81 18.338 0 33.257 14.718 33.257 32.81 0 9.17-3.902 17.923-10.73 24.125l-.02 27.398a1.5 1.5 0 0 1-1.5 1.499h-.001a1.5 1.5 0 0 1-1.499-1.501l.02-28.071c0-.434.188-.846.515-1.13 6.492-5.654 10.216-13.79 10.216-22.32 0-16.437-13.573-29.81-30.257-29.81-16.68 0-30.25 13.373-30.25 29.81 0 1.33.087 2.654.258 3.937a1.5 1.5 0 0 1-.402 1.235c-4.005 4.193-7.536 9.877-6.198 11.329 1.146 1.247 4.788 2.906 5.675 3.209a1.5 1.5 0 0 1 1.317 1.495l-.02 5.066c0 7.304 4.832 14.704 14.066 14.704l7.589.247a1.499 1.499 0 0 1 1.451 1.499v8.969a1.502 1.502 0 0 1-1.501 1.501z"/>
    <path d="M53.836 58.791a1.5 1.5 0 0 1-1.5-1.5v-6.753c0-3.492 1.842-6.323 5.186-7.972 2.854-1.407 4.697-4.321 4.697-7.425 0-4.438-3.672-8.05-8.185-8.05-4.514 0-8.186 3.611-8.186 8.05a1.5 1.5 0 1 1-3 0c0-6.093 5.018-11.05 11.186-11.05 6.167 0 11.185 4.957 11.185 11.05 0 4.237-2.501 8.208-6.371 10.115-2.33 1.149-3.512 2.926-3.512 5.281v6.753a1.5 1.5 0 0 1-1.5 1.501zm.102 10.746a1.5 1.5 0 0 1-1.5-1.5v-4.438a1.5 1.5 0 1 1 3 0v4.438a1.5 1.5 0 0 1-1.5 1.5z"/>
</svg>
