<svg xmlns="http://www.w3.org/2000/svg" fill-rule="evenodd" viewBox="0 0 100 100">
    <path d="M94.5 63h-22l16.24-23.53a1.5 1.5 0 0 0-1.23-2.35H82V18.5a1.5 1.5 0 0 0-1.5-1.5h-13a1.5 1.5 0 0 0-1.5 1.5V26H54.5a1.5 1.5 0 0 0-1.5 1.5V37H41V18.5a1.5 1.5 0 0 0-1.5-1.5H33V9.5a1.5 1.5 0 0 0-3 0V17h-6.5a1.5 1.5 0 0 0-1.5 1.5v18.45c-9 0-9.17.22-9.56.61a1.5 1.5 0 0 0-.26 1.77L24.79 63H7.5a1.5 1.5 0 0 0 0 3h87a1.5 1.5 0 0 0 0-3ZM69 20h10v17.08L69 37Zm-13 9h10v8H56Zm-31-9h13v16.94H25Zm3.08 42.79L15.94 40c1.64 0 4.12 0 7.23-.06a1.4 1.4 0 0 0 .67 0h15.3a1.36 1.36 0 0 0 .73 0c13.82 0 30.77.08 44.79.15L69.15 62.65A1.49 1.49 0 0 0 69 63H28.16a1.49 1.49 0 0 0-.08-.21ZM79.5 74h-57a1.5 1.5 0 0 0 0 3h57a1.5 1.5 0 0 0 0-3Zm-12 12h-31a1.5 1.5 0 0 0 0 3h31a1.5 1.5 0 0 0 0-3Z"/>
    <path d="M31.5 33a1.5 1.5 0 0 0 1.5-1.5v-6a1.5 1.5 0 0 0-3 0v6a1.5 1.5 0 0 0 1.5 1.5Z"/>
</svg>
